Coordinates
version=1
nRows=17
nColumns=24
inDegrees=yes

Units are S.I. units (second, meters, Newtons, ...)
Angles are in degrees.

endheader
time	pelvis_tilt	pelvis_list	pelvis_rotation	pelvis_tx	pelvis_ty	pelvis_tz	hip_flexion_r	hip_adduction_r	hip_rotation_r	knee_angle_r	ankle_angle_r	subtalar_angle_r	mtp_angle_r	hip_flexion_l	hip_adduction_l	hip_rotation_l	knee_angle_l	ankle_angle_l	subtalar_angle_l	mtp_angle_l	lumbar_extension	lumbar_bending	lumbar_rotation
      5.83000000	     13.87382811	     -4.15911793	      5.20142834	      2.40584452	      0.75505338	     -0.26329834	     -6.19659102	      7.56283827	     -5.23386563	    -16.96206480	     26.00009640	      3.85802648	      0.00000000	     11.71053173	     -1.90284013	      4.15850375	    -66.28916812	     20.65313482	     -5.21530997	      0.00000000	    -33.29988368	      9.01783471	      6.69625485
      5.83500000	     13.91630301	     -4.19826237	      4.81805379	      2.41328467	      0.75532843	     -0.26282604	     -7.12774966	      7.62884178	     -4.88415471	    -16.46545763	     26.33503728	      4.13042160	      0.00000000	     12.34519755	     -1.87825846	      3.80536340	    -65.13654400	     20.99637300	     -5.46119798	      0.00000000	    -33.37737627	      8.84619758	      7.38673354
      5.84000000	     13.95500415	     -4.24343918	      4.44102624	      2.42073077	      0.75552354	     -0.26237743	     -8.05913566	      7.68165674	     -4.59108967	    -15.95984596	     26.66883911	      4.45383682	      0.00000000	     12.94766859	     -1.86737506	      3.46939549	    -63.88891618	     21.29134018	     -5.72406789	      0.00000000	    -33.45528543	      8.68769603	      8.07414307
      5.84500000	     13.99859884	     -4.29015190	      4.06835878	      2.42818660	      0.75565270	     -0.26194846	     -8.99975421	      7.71794570	     -4.34903654	    -15.45061216	     27.00313000	      4.83146122	      0.00000000	     13.50309009	     -1.87067190	      3.13842829	    -62.53722319	     21.53466403	     -5.99907535	      0.00000000	    -33.54192758	      8.53425946	      8.77297889
      5.85000000	     14.06717558	     -4.30380264	      3.71292811	      2.43565628	      0.75574998	     -0.26155497	     -9.98211625	      7.70523387	     -4.15656375	    -14.92091253	     27.35667833	      5.28384069	      0.00000000	     13.98147010	     -1.84155568	      2.83387725	    -61.07179732	     21.70222533	     -6.25887354	      0.00000000	    -33.65843938	      8.36068661	      9.43734737
      5.85500000	     14.10553869	     -4.38779249	      3.36324634	      2.44311764	      0.75571322	     -0.26117262	    -10.91949897	      7.74953377	     -4.04706280	    -14.40102656	     27.66822219	      5.73964163	      0.00000000	     14.47144451	     -1.89875310	      2.54135523	    -59.54089426	     21.88044113	     -6.55456958	      0.00000000	    -33.75076727	      8.26109472	     10.13576532
      5.86000000	     14.15854422	     -4.44471376	      3.02588268	      2.45059217	      0.75563128	     -0.26083592	    -11.88314125	      7.75289384	     -3.95584863	    -13.86956619	     27.98574704	      6.24305951	      0.00000000	     14.89394367	     -1.93075601	      2.25897184	    -57.89870885	     22.01524771	     -6.82109694	      0.00000000	    -33.86051030	      8.14974547	     10.80580145
      5.86500000	     14.21452087	     -4.51412278	      2.70525628	      2.45806796	      0.75547511	     -0.26049361	    -12.85361859	      7.76344952	     -3.92583511	    -13.32677248	     28.28886846	      6.76457883	      0.00000000	     15.27404528	     -1.98046127	      2.01050584	    -56.16841459	     22.12084468	     -7.05630823	      0.00000000	    -33.97883693	      8.04870971	     11.45101995
      5.87000000	     14.31458068	     -4.53181229	      2.43434146	      2.46557046	      0.75529694	     -0.26021651	    -13.89001463	      7.71890587	     -3.96417632	    -12.75916957	     28.64400206	      7.36943434	      0.00000000	     15.55243699	     -1.96897905	      1.80639079	    -54.32539802	     22.18338135	     -7.22241927	      0.00000000	    -34.14044888	      7.92573793	     12.00374471
      5.87500000	     14.34357846	     -4.65397786	      2.14797772	      2.47304025	      0.75495380	     -0.25993314	    -14.82361391	      7.77302459	     -3.98892005	    -12.22747085	     28.87162001	      7.87726728	      0.00000000	     15.89384483	     -2.08433760	      1.58885412	    -52.44269747	     22.26480567	     -7.35682000	      0.00000000	    -34.23777394	      7.90041962	     12.65772660
      5.88000000	     14.44418188	     -4.69616596	      1.89885398	      2.48054969	      0.75462269	     -0.25968068	    -15.85716520	      7.74645353	     -4.06430432	    -11.66707088	     29.19039193	      8.46460489	      0.00000000	     16.08775464	     -2.11047785	      1.40542036	    -50.43540314	     22.31908200	     -7.37022044	      0.00000000	    -34.40770534	      7.80958915	     13.18943541
      5.88500000	     14.47359710	     -4.82447724	      1.63757263	      2.48803456	      0.75414378	     -0.25942971	    -16.79007063	      7.79895762	     -4.13551674	    -11.14310402	     29.36753718	      8.96743558	      0.00000000	     16.33839361	     -2.24072238	      1.20753340	    -48.38798625	     22.38748815	     -7.31436002	      0.00000000	    -34.51132930	      7.80186515	     13.80036389
      5.89000000	     14.54754743	     -4.90558166	      1.39724094	      2.49555020	      0.75364292	     -0.25917688	    -17.78117969	      7.80527345	     -4.22690347	    -10.61093484	     29.60735980	      9.49843606	      0.00000000	     16.47934429	     -2.32366419	      1.02774323	    -46.24428881	     22.45025644	     -7.09588888	      0.00000000	    -34.66079601	      7.74690175	     14.33473150
      5.89500000	     14.63237412	     -4.99680920	      1.18368835	      2.50306988	      0.75307718	     -0.25896227	    -18.77757091	      7.82251083	     -4.34219602	    -10.09432017	     29.84586834	     10.04780041	      0.00000000	     16.56833525	     -2.41159826	      0.87989007	    -44.04012918	     22.49977054	     -6.74402930	      0.00000000	    -34.82224735	      7.71318617	     14.83824392
      5.90000000	     14.68326154	     -5.10278318	      0.97468189	      2.51060923	      0.75241017	     -0.25874113	    -19.72614257	      7.85321431	     -4.46693518	     -9.60402601	     30.04621651	     10.55398007	      0.00000000	     16.65506718	     -2.52200403	      0.72933970	    -41.79142030	     22.54524842	     -6.25776795	      0.00000000	    -34.94594397	      7.69144604	     15.34177756
      5.90500000	     14.74704371	     -5.20556912	      0.77399589	      2.51816031	      0.75169131	     -0.25854117	    -20.67681856	      7.87500131	     -4.57814056	     -9.14539603	     30.25450353	     11.08016806	      0.00000000	     16.68033142	     -2.62760375	      0.59379358	    -39.49365521	     22.58779677	     -5.60504713	      0.00000000	    -35.08607130	      7.66997726	     15.81397949
      5.91000000	     14.78874865	     -5.31674446	      0.57384202	      2.52574935	      0.75089212	     -0.25834442	    -21.59054372	      7.89983029	     -4.70660650	     -8.72167022	     30.44552850	     11.57901736	      0.00000000	     16.68853675	     -2.74773101	      0.44336946	    -37.16942478	     22.60853095	     -4.81256223	      0.00000000	    -35.19432357	      7.65070129	     16.29539236
